<svg xmlns="http://www.w3.org/2000/svg" xml:space="preserve" width="68.66mm" height="98.857" style="shape-rendering:geometricPrecision;text-rendering:geometricPrecision;image-rendering:optimizeQuality;fill-rule:evenodd;clip-rule:evenodd" viewBox="0 0 6851.77 2610.18"><defs><style>.fil0{fill:#fefefe}</style></defs><g id="Слой_x0020_1"><g id="_2454867908032"><path d="M5340.49 1355.57c-54.23-458.21 541.35-446.96 595.4-128.49 77.03 453.79-550.47 508.2-595.4 128.49m600.66 452.27c108 88.25 145.96 65.33 298.07 56.5-13.74-181.44 3.44-994.84-15.71-1128.49-143.49-5.07-180.83-36.17-275.09 55.33-411.44-219.41-901.56 36.53-903.57 511.36-1.87 440.75 512.02 761.88 896.3 505.3M4176.04 1017.16c229.01-7.2 464.55-8.96 463.73 285.75-.82 290.65-237.91 284.03-466.8 281.26l3.07-567zm-309.69 855.44c298.83-17.05 1056.87 126.84 1058.77-569.93 1.8-657.65-612.15-555.18-1055.73-573.72l-3.04 1143.64zM2471.81 1472.74c-118.94 261.83-556.49 138.61-571.24-143.7-7.25-138.85 53.71-264.94 186.28-315.24 176.82-67.09 239.56 11.87 366.69 95.35l236.64-148.16c-454.58-561.29-1297.87-91.62-1039.74 563.95 215 546.01 1170.56 527.47 1122.14-309.27l-569.69 6.07 4.7 242.12zM927.75 1016.32l559.01-4.58-5.31-278.67-862.63-2.7-6.28 1137.9 873.69-4.09-3.89-280.49-557.17-.33 4.33-142.62 479.24-3.53-6.66-279.95-474.19.54zM2881.46 1859.41c148.4 1.98 654.04 11.71 779.8-7.37l.93-262.53-238.64-6.32-1.81-488.65-146.54-78.33 387.49-11.15-8.94-269.21-769.01-.1-2.67 277.72 238.78 4.37-9.2 566.22-231.8 9.14 1.62 266.2z" class="fil0"/><path d="M244.69 244.69h6362.36v2120.8H244.69zM0 2610.18h6851.77V0H0z" class="fil0"/></g></g></svg>