<?xml version="1.0" encoding="UTF-8"?>
<!DOCTYPE svg PUBLIC "-//W3C//DTD SVG 1.1//EN" "http://www.w3.org/Graphics/SVG/1.1/DTD/svg11.dtd">
<!-- Creator: CorelDRAW -->
<svg xmlns="http://www.w3.org/2000/svg" xml:space="preserve" width="68.66mm" height="26.156mm" version="1.1" style="shape-rendering:geometricPrecision; text-rendering:geometricPrecision; image-rendering:optimizeQuality; fill-rule:evenodd; clip-rule:evenodd"
viewBox="0 0 6851.77 2610.18"
 xmlns:xlink="http://www.w3.org/1999/xlink"
 xmlns:xodm="http://www.corel.com/coreldraw/odm/2003">
 <defs>
  <style type="text/css">
   <![CDATA[
    .fil0 {fill:#FEFEFE}
   ]]>
  </style>
 </defs>
 <g id="Слой_x0020_1">
  <metadata id="CorelCorpID_0Corel-Layer"/>
  <g id="_2454867908032">
   <g>
    <path class="fil0" d="M5340.49 1355.57c-54.23,-458.21 541.35,-446.96 595.4,-128.49 77.03,453.79 -550.47,508.2 -595.4,128.49zm600.66 452.27c108,88.25 145.96,65.33 298.07,56.5 -13.74,-181.44 3.44,-994.84 -15.71,-1128.49 -143.49,-5.07 -180.83,-36.17 -275.09,55.33 -411.44,-219.41 -901.56,36.53 -903.57,511.36 -1.87,440.75 512.02,761.88 896.3,505.3z"/>
    <path class="fil0" d="M4176.04 1017.16c229.01,-7.2 464.55,-8.96 463.73,285.75 -0.82,290.65 -237.91,284.03 -466.8,281.26l3.07 -567zm-309.69 855.44c298.83,-17.05 1056.87,126.84 1058.77,-569.93 1.8,-657.65 -612.15,-555.18 -1055.73,-573.72l-3.04 1143.64z"/>
    <path class="fil0" d="M2471.81 1472.74c-118.94,261.83 -556.49,138.61 -571.24,-143.7 -7.25,-138.85 53.71,-264.94 186.28,-315.24 176.82,-67.09 239.56,11.87 366.69,95.35l236.64 -148.16c-454.58,-561.29 -1297.87,-91.62 -1039.74,563.95 215,546.01 1170.56,527.47 1122.14,-309.27l-569.69 6.07 4.7 242.12 264.22 8.88z"/>
    <polygon class="fil0" points="927.75,1016.32 1486.76,1011.74 1481.45,733.07 618.82,730.37 612.54,1868.27 1486.23,1864.18 1482.34,1583.69 925.17,1583.36 929.5,1440.74 1408.74,1437.21 1402.08,1157.26 927.89,1157.8 "/>
    <path class="fil0" d="M2881.46 1859.41c148.4,1.98 654.04,11.71 779.8,-7.37l0.93 -262.53 -238.64 -6.32 -1.81 -488.65 -146.54 -78.33 387.49 -11.15 -8.94 -269.21 -769.01 -0.1 -2.67 277.72 238.78 4.37 -9.2 566.22 -231.8 9.14 1.62 266.2z"/>
   </g>
   <path class="fil0" d="M244.69 244.69l6362.36 0 0 2120.8 -6362.36 0 0 -2120.8zm-244.69 2365.49l6851.77 0 0 -2610.18 -6851.77 0 0 2610.18z"/>
  </g>
 </g>
</svg>
