<svg xmlns="http://www.w3.org/2000/svg" viewBox="0 0 96 96" fill="none">
  <ellipse cx="48" cy="80" rx="27" ry="6" fill="#0F172A" opacity="0.08"/>
  <path d="M56 22a13 13 0 0 0-11 20L27 60a7 7 0 1 0 10 10l18-18a13 13 0 0 0 17-17l-7 7-6-6 7-7A13 13 0 0 0 56 22Z" fill="#D7E0E9" stroke="#0F172A" stroke-width="3.5" stroke-linejoin="round"/>
  <path d="M35 69a3.5 3.5 0 1 0-5-5 3.5 3.5 0 0 0 5 5Z" fill="#F8FAFC" stroke="#0F172A" stroke-width="3"/>
  <path d="M31 27 41 17l8 3 3-8 14 14-8 3 3 8-10 10-8-3-3 8Z" fill="#E8EDF2" stroke="#0F172A" stroke-width="3" stroke-linejoin="round"/>
  <circle cx="49" cy="29" r="6" fill="#F8FAFC" stroke="#0F172A" stroke-width="3"/>
</svg>
